<svg width="24" height="24" viewBox="0 0 24 24" fill="none" xmlns="http://www.w3.org/2000/svg">
<g id="entypo-social:twitter-with-circle" clip-path="url(#clip0_5_80)">
<path id="Vector" d="M12 0.480003C5.6376 0.480003 0.479996 5.6376 0.479996 12C0.479996 18.3624 5.6376 23.52 12 23.52C18.3624 23.52 23.52 18.3624 23.52 12C23.52 5.6376 18.3624 0.480003 12 0.480003ZM16.686 9.9168C16.6908 10.0152 16.692 10.1136 16.692 10.2096C16.692 13.2096 14.4108 16.6668 10.2372 16.6668C9.00395 16.6689 7.79636 16.3147 6.7596 15.6468C6.936 15.6684 7.1172 15.6768 7.3008 15.6768C8.364 15.6768 9.342 15.3156 10.1184 14.706C9.64526 14.6967 9.1868 14.54 8.80693 14.2578C8.42706 13.9756 8.1447 13.5819 7.9992 13.1316C8.33898 13.1962 8.68902 13.1827 9.0228 13.092C8.50925 12.9882 8.04743 12.7099 7.71565 12.3044C7.38386 11.8989 7.20252 11.3911 7.2024 10.8672V10.8396C7.5084 11.0088 7.8588 11.112 8.2308 11.124C7.74935 10.8035 7.40854 10.3112 7.27805 9.74776C7.14756 9.18432 7.23726 8.59231 7.5288 8.0928C8.09874 8.7936 8.80951 9.3669 9.61508 9.77558C10.4206 10.1843 11.3031 10.4192 12.2052 10.4652C12.0905 9.97837 12.1399 9.46729 12.3456 9.01141C12.5513 8.55553 12.9019 8.18039 13.3429 7.94432C13.7838 7.70825 14.2904 7.62447 14.7839 7.70601C15.2773 7.78755 15.73 8.02983 16.0716 8.3952C16.5794 8.29473 17.0664 8.10847 17.5116 7.8444C17.3424 8.37016 16.988 8.81661 16.5144 9.1008C16.9642 9.04663 17.4034 8.9257 17.8176 8.742C17.5134 9.19788 17.1302 9.59573 16.686 9.9168V9.9168Z" fill="#110F57"/>
</g>
<defs>
<clipPath id="clip0_5_80">
<rect width="24" height="24" fill="white"/>
</clipPath>
</defs>
</svg>
