<svg width="181" height="131" viewBox="0 0 181 131" fill="none" xmlns="http://www.w3.org/2000/svg">
<g id="Group 1">
<circle id="Ellipse 1" cx="-9.4744" cy="36.8882" r="9.93281" transform="rotate(-10.1345 -9.4744 36.8882)" fill="white" fill-opacity="0.6"/>
<circle id="Ellipse 8" cx="-4.58066" cy="64.2661" r="9.93281" transform="rotate(-10.1345 -4.58066 64.2661)" fill="white" fill-opacity="0.6"/>
<circle id="Ellipse 15" cx="0.313139" cy="91.6441" r="9.93281" transform="rotate(-10.1345 0.313139 91.6441)" fill="white" fill-opacity="0.6"/>
<circle id="Ellipse 22" cx="5.20694" cy="119.022" r="9.93281" transform="rotate(-10.1345 5.20694 119.022)" fill="white" fill-opacity="0.6"/>
<circle id="Ellipse 2" cx="17.9035" cy="31.9944" r="9.93281" transform="rotate(-10.1345 17.9035 31.9944)" fill="white" fill-opacity="0.6"/>
<circle id="Ellipse 9" cx="22.7973" cy="59.3723" r="9.93281" transform="rotate(-10.1345 22.7973 59.3723)" fill="white" fill-opacity="0.6"/>
<circle id="Ellipse 16" cx="27.6911" cy="86.7503" r="9.93281" transform="rotate(-10.1345 27.6911 86.7503)" fill="white" fill-opacity="0.6"/>
<circle id="Ellipse 23" cx="32.5848" cy="114.128" r="9.93281" transform="rotate(-10.1345 32.5848 114.128)" fill="white" fill-opacity="0.6"/>
<circle id="Ellipse 3" cx="45.2814" cy="27.1007" r="9.93281" transform="rotate(-10.1345 45.2814 27.1007)" fill="white" fill-opacity="0.6"/>
<circle id="Ellipse 10" cx="50.1752" cy="54.4786" r="9.93281" transform="rotate(-10.1345 50.1752 54.4786)" fill="white" fill-opacity="0.6"/>
<circle id="Ellipse 17" cx="55.069" cy="81.8565" r="9.93281" transform="rotate(-10.1345 55.069 81.8565)" fill="white" fill-opacity="0.6"/>
<circle id="Ellipse 24" cx="59.9628" cy="109.234" r="9.93281" transform="rotate(-10.1345 59.9628 109.234)" fill="white" fill-opacity="0.6"/>
<circle id="Ellipse 4" cx="72.6593" cy="22.2069" r="9.93281" transform="rotate(-10.1345 72.6593 22.2069)" fill="white" fill-opacity="0.6"/>
<circle id="Ellipse 11" cx="77.5531" cy="49.5848" r="9.93281" transform="rotate(-10.1345 77.5531 49.5848)" fill="white" fill-opacity="0.6"/>
<circle id="Ellipse 18" cx="82.4469" cy="76.9627" r="9.93281" transform="rotate(-10.1345 82.4469 76.9627)" fill="white" fill-opacity="0.6"/>
<circle id="Ellipse 25" cx="87.3407" cy="104.341" r="9.93281" transform="rotate(-10.1345 87.3407 104.341)" fill="white" fill-opacity="0.6"/>
<circle id="Ellipse 5" cx="100.037" cy="17.3131" r="9.93281" transform="rotate(-10.1345 100.037 17.3131)" fill="white" fill-opacity="0.6"/>
<circle id="Ellipse 12" cx="104.931" cy="44.6911" r="9.93281" transform="rotate(-10.1345 104.931 44.6911)" fill="white" fill-opacity="0.6"/>
<circle id="Ellipse 19" cx="109.825" cy="72.069" r="9.93281" transform="rotate(-10.1345 109.825 72.069)" fill="white" fill-opacity="0.6"/>
<circle id="Ellipse 26" cx="114.719" cy="99.4469" r="9.93281" transform="rotate(-10.1345 114.719 99.4469)" fill="white" fill-opacity="0.6"/>
<circle id="Ellipse 6" cx="127.415" cy="12.4194" r="9.93281" transform="rotate(-10.1345 127.415 12.4194)" fill="white" fill-opacity="0.6"/>
<circle id="Ellipse 13" cx="132.309" cy="39.7973" r="9.93281" transform="rotate(-10.1345 132.309 39.7973)" fill="white" fill-opacity="0.6"/>
<circle id="Ellipse 20" cx="137.203" cy="67.1752" r="9.93281" transform="rotate(-10.1345 137.203 67.1752)" fill="white" fill-opacity="0.6"/>
<circle id="Ellipse 27" cx="142.096" cy="94.5531" r="9.93281" transform="rotate(-10.1345 142.096 94.5531)" fill="white" fill-opacity="0.6"/>
<circle id="Ellipse 14" cx="159.687" cy="34.9035" r="9.93281" transform="rotate(-10.1345 159.687 34.9035)" fill="white" fill-opacity="0.6"/>
<circle id="Ellipse 21" cx="164.581" cy="62.2815" r="9.93281" transform="rotate(-10.1345 164.581 62.2815)" fill="white" fill-opacity="0.6"/>
<circle id="Ellipse 28" cx="169.474" cy="89.6593" r="9.93281" transform="rotate(-10.1345 169.474 89.6593)" fill="white" fill-opacity="0.6"/>
</g>
</svg>
