<svg width="20" height="24" viewBox="0 0 20 24" fill="none" xmlns="http://www.w3.org/2000/svg">
<g id="Logo Shapes 26">
<g id="Group">
<path id="Vector" d="M18.9386 13.9017L14.3741 16.802C14.3619 16.741 14.3522 16.68 14.3352 16.6191C14.3014 16.4315 14.2578 16.2486 14.207 16.0657C13.7227 14.2427 12.7113 12.5913 11.2915 11.3055C11.1793 11.1164 11.0224 10.9557 10.8338 10.8366L10.0106 10.3136C9.94024 10.2666 9.86999 10.2221 9.79978 10.1801L7.31067 8.59721C7.05205 8.43062 6.74426 8.35052 6.43427 8.36913C6.12426 8.38774 5.82908 8.50405 5.59369 8.70028C5.54091 8.74281 5.49152 8.78912 5.44591 8.83882C5.33498 8.95646 5.24794 9.09326 5.1893 9.2421C5.21291 9.04733 5.24265 8.85505 5.27901 8.66531C5.60578 6.94097 6.39959 5.33161 7.57931 4.0018C7.79178 3.76039 8.0177 3.52811 8.25495 3.30773L17.5753 9.23339L17.5777 9.2357C17.58 9.2357 17.5826 9.23796 17.585 9.2405H17.5873C17.5911 9.24331 17.5952 9.24562 17.5996 9.24734L18.9386 10.0987C19.2643 10.3056 19.5318 10.5877 19.7169 10.9197C19.902 11.2516 19.9989 11.6229 19.9989 12.0002C19.9989 12.3775 19.902 12.7488 19.7169 13.0807C19.5318 13.4127 19.2643 13.6948 18.9386 13.9017Z" fill="#00D0AB"/>
<path id="Vector_2" d="M14.3742 16.802L10.5555 19.2289L8.96695 20.2372L8.94027 20.256C8.93893 20.2573 8.93718 20.2581 8.93532 20.2583C8.93295 20.2608 8.93059 20.2631 8.92823 20.2631C8.9279 20.2631 8.92757 20.2631 8.92727 20.2632C8.92693 20.2633 8.92665 20.2634 8.92642 20.2637C8.92616 20.2639 8.92597 20.2641 8.92583 20.2644C8.92571 20.2647 8.92564 20.265 8.92564 20.2654C8.92328 20.2654 8.92092 20.2676 8.91832 20.2676L8.91596 20.2702L5.37087 22.5263C5.36881 22.5282 5.36641 22.5299 5.36379 22.5311C5.36119 22.5334 5.36119 22.5334 5.35883 22.5334L3.63952 23.6261C3.28522 23.8516 2.87453 23.9801 2.45094 23.9979C2.02737 24.0157 1.60672 23.9221 1.2336 23.7271C0.860479 23.5322 0.548798 23.2431 0.331615 22.8904C0.114434 22.5378 -0.000154864 22.1349 1.5708e-07 21.7243L1.5708e-07 17.1191C0.0236074 17.1236 0.0509901 17.1259 0.0750694 17.1284C0.533246 17.1896 0.995236 17.2202 1.45775 17.2199C1.63952 17.2199 1.8187 17.2151 1.99788 17.2057C2.0026 17.2057 2.00496 17.2034 2.00992 17.2034C4.11265 17.0964 6.12982 16.3625 7.78517 15.1023C7.7889 15.1007 7.79221 15.0983 7.79485 15.0952L10.8338 13.1631C11.0758 13.0101 11.2643 12.7898 11.3745 12.5312C11.4847 12.2725 11.5115 11.9876 11.4514 11.7139C11.4203 11.5707 11.3664 11.433 11.2915 11.3059C12.7113 12.5917 13.7227 14.2431 14.207 16.0661C14.2578 16.249 14.3015 16.4319 14.3352 16.6196C14.3522 16.6804 14.3619 16.7414 14.3742 16.802Z" fill="#00FB82"/>
<path id="Vector_3" d="M7.31067 15.4026L7.78517 15.1024C6.12982 16.3626 4.11265 17.0965 2.00992 17.2035C2.00496 17.2035 2.0026 17.2058 1.99788 17.2058C1.8187 17.2152 1.63952 17.22 1.45775 17.22C0.995236 17.2202 0.533246 17.1897 0.0750694 17.1285C0.0514622 17.126 0.0243156 17.1237 1.5708e-07 17.1192L1.5708e-07 2.27586C-0.000154864 1.86528 0.114434 1.46232 0.331615 1.1097C0.548798 0.757189 0.860479 0.468005 1.2336 0.273005C1.60672 0.0780057 2.02737 -0.0154931 2.45094 0.00233802C2.87453 0.0201692 3.28522 0.148645 3.63952 0.374049L7.04226 2.53372C7.04917 2.53781 7.05564 2.54257 7.06161 2.54787V2.55018C7.06596 2.55196 7.07002 2.55434 7.07365 2.55727H7.07625L7.07861 2.55955C7.08128 2.56079 7.08373 2.56241 7.08593 2.56436L8.25543 3.30755C8.01818 3.52792 7.79296 3.76019 7.57979 4.00159C6.40009 5.33141 5.60628 6.94078 5.27951 8.66513C5.24315 8.85487 5.21412 9.04712 5.1898 9.2419C5.11983 9.40619 5.08442 9.5824 5.08569 9.76014L5.08569 14.2394C5.08569 14.4294 5.12585 14.6175 5.20366 14.7919C5.28149 14.9664 5.39535 15.1236 5.53824 15.2538C5.68114 15.3841 5.85002 15.4847 6.03454 15.5493C6.21907 15.614 6.4153 15.6415 6.61119 15.63C6.62828 15.6296 6.64533 15.6281 6.66218 15.6255C6.89436 15.6056 7.11752 15.5289 7.31067 15.4026Z" fill="#00AA58"/>
<g id="Group_2" style="mix-blend-mode:multiply" opacity="0.2">
<g id="Vector_4" style="mix-blend-mode:multiply" opacity="0.2">
<path d="M14.2167 16.0919C14.2144 16.0825 14.2094 16.0755 14.207 16.0661C14.1296 15.8528 14.0496 15.6393 13.9648 15.4306C13.8753 15.2125 13.7783 14.9992 13.6766 14.7882C13.5701 14.5795 13.4641 14.3708 13.3461 14.1666C13.228 13.9625 13.1088 13.7634 12.983 13.5665C12.8522 13.3718 12.7165 13.1818 12.5786 12.995C12.4408 12.8082 12.2904 12.6244 12.1402 12.4464C11.9901 12.2683 11.8279 12.0991 11.6657 11.9281C11.5949 11.8554 11.5227 11.785 11.4502 11.7146C11.4192 11.5714 11.3652 11.4337 11.2904 11.3065C11.1781 11.1175 11.0213 10.9568 10.8326 10.8377L10.0094 10.3146C9.93908 10.2677 9.86883 10.2232 9.79864 10.1811L7.3095 8.59826C7.05089 8.43168 6.74312 8.35159 6.43311 8.3702C6.12312 8.38881 5.82792 8.50513 5.59253 8.70136C5.79763 8.50414 6.06066 8.37313 6.3456 8.32622C6.63998 8.2741 6.94378 8.31179 7.21507 8.43412C7.34822 8.49516 7.4693 8.57128 7.58781 8.63987L7.94879 8.84858L8.66548 9.27767C9.14234 9.56373 9.61694 9.85369 10.0892 10.1475L10.7963 10.5908C10.9268 10.6654 11.0494 10.7526 11.162 10.8509C11.2696 10.9483 11.3618 11.0605 11.4355 11.184C11.6076 11.3459 11.7772 11.51 11.9393 11.6812C12.1065 11.8593 12.2637 12.0422 12.4162 12.2322C12.5687 12.4221 12.7094 12.6144 12.8473 12.8114C12.983 13.0131 13.1088 13.217 13.2299 13.4257C13.351 13.6344 13.4599 13.8454 13.5604 14.0635C13.661 14.2816 13.7542 14.4997 13.8366 14.7226C13.919 14.9455 13.9891 15.1727 14.0545 15.4002L14.144 15.7449L14.2167 16.0919Z" fill="black"/>
</g>
</g>
<g id="Group_3" style="mix-blend-mode:multiply" opacity="0.2">
<g id="Vector_5" style="mix-blend-mode:multiply" opacity="0.2">
<path d="M7.59395 3.98283C7.58899 3.98992 7.58427 3.99472 7.57932 4.00158C7.28899 4.38749 7.02301 4.79004 6.78281 5.20701C6.65675 5.41276 6.54532 5.62902 6.43649 5.84482C6.32766 6.06062 6.22568 6.281 6.13125 6.50137C6.04178 6.72403 5.94971 6.94692 5.87157 7.17439C5.79343 7.40185 5.72615 7.62931 5.66076 7.85905C5.59537 8.0888 5.53966 8.32335 5.49551 8.5579C5.48323 8.61414 5.46883 8.67975 5.46152 8.7289L5.44452 8.83931C5.33359 8.95693 5.24655 9.09373 5.18791 9.24257C5.11794 9.40689 5.08253 9.58308 5.0838 9.76082V14.2394C5.04272 13.8222 5.02337 13.4048 4.99409 12.9851C4.97238 12.5676 4.95066 12.1502 4.93862 11.7328C4.92658 11.3153 4.91501 10.8981 4.90698 10.4807L4.8973 9.85455C4.89251 9.74097 4.8982 9.6272 4.9143 9.51461C4.93113 9.4047 4.96034 9.29693 5.00141 9.19319L5.0524 8.85326L5.08144 8.67266C5.09112 8.60248 5.10505 8.54853 5.12016 8.4852C5.16737 8.24357 5.23158 8.00216 5.29933 7.76281C5.36709 7.52346 5.4542 7.29166 5.5439 7.0594C5.63361 6.82713 5.73276 6.5999 5.84183 6.37701C5.95561 6.15664 6.07176 5.93626 6.20018 5.72274C6.32861 5.50923 6.46647 5.30303 6.61189 5.10368C6.75731 4.90434 6.9169 4.7098 7.07908 4.52234C7.24117 4.33418 7.413 4.15411 7.59395 3.98283Z" fill="black"/>
</g>
</g>
<g id="Group_4" style="mix-blend-mode:multiply" opacity="0.2">
<g id="Vector_6" style="mix-blend-mode:multiply" opacity="0.2">
<path d="M10.8338 13.163C10.3593 13.5313 9.87253 13.8829 9.38339 14.2299C8.90157 14.5676 8.4155 14.8961 7.92329 15.2195L7.89425 15.2406C7.48004 15.5652 7.03854 15.8558 6.57437 16.1093C6.34208 16.2311 6.10459 16.3507 5.86262 16.4563C5.62064 16.5619 5.36852 16.6556 5.11923 16.7423C4.99316 16.7823 4.8697 16.8291 4.74151 16.8618C4.61333 16.8945 4.4849 16.9322 4.35672 16.9627C4.09996 17.0271 3.83993 17.0788 3.57768 17.1174C3.44689 17.1339 3.31611 17.1574 3.18533 17.1668C3.05218 17.1807 2.9214 17.1926 2.78825 17.1995C2.52541 17.2148 2.26194 17.2171 1.99884 17.2066C2.00356 17.2066 2.00592 17.2043 2.01088 17.2043C2.52669 17.1268 3.03519 17.0308 3.53164 16.9071C3.78094 16.8385 4.03046 16.7699 4.27503 16.6913C4.52197 16.6163 4.76181 16.5249 5.00143 16.4357C5.47704 16.2464 5.94043 16.0296 6.38906 15.7863C6.48089 15.7346 6.5706 15.6806 6.66266 15.6262C6.89501 15.6064 7.11833 15.5297 7.31163 15.4033L7.78613 15.1032C7.78986 15.1015 7.79316 15.0991 7.79581 15.0961L10.8338 13.163Z" fill="black"/>
</g>
</g>
<g id="Group_5" style="mix-blend-mode:screen" opacity="0.4">
<g id="Vector_7" style="mix-blend-mode:screen" opacity="0.4">
<path d="M5.35883 22.5334L3.63952 23.6261C3.28522 23.8516 2.87453 23.9801 2.45094 23.9979C2.02737 24.0157 1.60672 23.9221 1.2336 23.7271C0.860479 23.5322 0.548798 23.2431 0.331615 22.8904C0.114434 22.5378 -0.000154864 22.1349 1.5708e-07 21.7243L1.5708e-07 15.9333C1.5708e-07 15.9333 0.0169977 16.1304 0.0387162 16.4774C0.0460345 16.658 0.060669 16.8761 0.0750694 17.1294C0.0873451 17.3662 0.101751 17.6286 0.11143 17.9171C0.135037 18.5115 0.157464 19.2044 0.169504 19.9501C0.174461 20.3207 0.186499 20.7045 0.186499 21.0968C0.18886 21.2913 0.188859 21.4884 0.191455 21.6855C0.194182 21.8685 0.21689 22.0508 0.259204 22.2293C0.347184 22.5833 0.530083 22.9085 0.789422 23.1721C1.04221 23.429 1.35541 23.6229 1.70231 23.7372C2.02957 23.8427 2.37715 23.8756 2.71931 23.8334C2.79934 23.817 2.87913 23.8028 2.95916 23.7863C3.03919 23.7699 3.10434 23.7372 3.17941 23.7162C3.21577 23.7045 3.25212 23.6949 3.28612 23.6809L3.39495 23.627C3.46294 23.5918 3.53069 23.5584 3.59608 23.5262C4.12134 23.2167 4.56941 22.9727 4.87937 22.7969C5.1433 22.6458 5.31516 22.5569 5.35883 22.5334Z" fill="black"/>
</g>
</g>
<g id="Group_6" style="mix-blend-mode:multiply" opacity="0.35">
<g id="Vector_8" style="mix-blend-mode:multiply" opacity="0.35">
<path d="M8.91835 20.2682C8.92125 20.2682 8.9239 20.2656 8.92654 20.2629V20.2656C8.9239 20.2656 8.92125 20.2682 8.91835 20.2682Z" fill="black"/>
</g>
</g>
<g id="Group_7" style="mix-blend-mode:multiply" opacity="0.35">
<g id="Vector_9" style="mix-blend-mode:multiply" opacity="0.35">
<path d="M18.9386 13.9018L14.3742 16.8021L10.5555 19.229L8.94026 20.2561C8.93891 20.2574 8.93717 20.2582 8.9353 20.2584C8.99833 20.2138 9.21387 20.0615 9.55051 19.824C9.95962 19.5449 10.5361 19.1345 11.2431 18.6654C11.9502 18.1963 12.7663 17.6386 13.6548 17.0616C13.8777 16.9162 14.1053 16.7685 14.3352 16.6185C14.5651 16.4686 14.793 16.3213 15.0255 16.1707C15.4953 15.8705 15.9698 15.5656 16.4469 15.2608C16.924 14.9561 17.4034 14.6582 17.8756 14.3604C18.1105 14.2127 18.3454 14.0673 18.5779 13.9219C18.6891 13.8492 18.8175 13.7811 18.9143 13.7061L19.067 13.6005C19.1128 13.5607 19.1565 13.5161 19.2025 13.4763C19.5457 13.1463 19.7699 12.7179 19.8418 12.2547C19.8996 11.8335 19.8333 11.4051 19.6506 11.0188C19.6034 10.9297 19.5512 10.8476 19.5028 10.7656C19.4447 10.6883 19.389 10.6131 19.3333 10.5404C19.2703 10.4748 19.2075 10.4114 19.1468 10.3506C19.0791 10.2919 19.0052 10.2379 18.941 10.1865C18.6674 9.98944 18.4131 9.81822 18.2122 9.67762C17.8635 9.43142 17.6407 9.27894 17.5873 9.23916C17.5911 9.242 17.5952 9.2443 17.5996 9.24602L18.9386 10.0973C19.2646 10.3042 19.5324 10.5864 19.7177 10.9185C19.903 11.2506 20 11.6221 20 11.9996C20 12.377 19.903 12.7485 19.7177 13.0806C19.5324 13.4127 19.2646 13.6949 18.9386 13.9018Z" fill="black"/>
</g>
</g>
<g id="Group_8" style="mix-blend-mode:screen" opacity="0.4">
<g id="Vector_10" style="mix-blend-mode:screen" opacity="0.4">
<path d="M7.07316 2.55728C7.06952 2.55435 7.06548 2.55198 7.06112 2.55019C6.98604 2.5079 6.75613 2.37668 6.40486 2.17505C5.97639 1.92176 5.35646 1.57245 4.62748 1.12916C4.2644 0.913361 3.8647 0.657781 3.45063 0.428033C3.02523 0.200343 2.53401 0.115531 2.05357 0.186627C1.80372 0.224804 1.56225 0.303215 1.33922 0.418661C1.11272 0.539592 0.908887 0.696415 0.736295 0.882956C0.69054 0.927077 0.649926 0.97577 0.61519 1.02835C0.576474 1.0823 0.537516 1.13145 0.501397 1.18542C0.435528 1.29481 0.37961 1.40955 0.334265 1.52833C0.314907 1.58685 0.28587 1.64789 0.271234 1.70641L0.232517 1.88473C0.216588 1.94926 0.208662 2.01542 0.208908 2.08178L0.194269 2.28753L0.186949 3.93348C0.182228 4.47984 0.177273 5.01684 0.169954 5.53966C0.157915 6.58095 0.126521 7.55138 0.109524 8.38647C0.0925271 9.22156 0.0538081 9.91286 0.0368109 10.4007C0.0150924 10.886 0.000457921 11.1629 0.000457921 11.1629L0.000457921 2.27564C0.0003029 1.86506 0.114892 1.46213 0.332074 1.1095C0.549255 0.756994 0.860929 0.46781 1.23405 0.272811C1.60717 0.0778109 2.02782 -0.0156879 2.45141 0.00214321C2.87497 0.0199744 3.28569 0.14845 3.63996 0.373854L7.04223 2.53373C7.04915 2.53785 7.05564 2.54258 7.06159 2.54791C7.06607 2.55022 7.07002 2.55342 7.07316 2.55728Z" fill="black"/>
</g>
</g>
</g>
</g>
</svg>
