<svg width="92" height="96" viewBox="0 0 92 96" fill="none" xmlns="http://www.w3.org/2000/svg">
<g id="Group 217">
<g id="Group 216">
<path id="path14" d="M91.5385 96H31.0677V27.4487H91.5385V96Z" fill="#E82C4F"/>
<path id="path16" d="M47.8098 45.0422H62.6766C66.8701 45.0422 70.16 46.282 72.3038 48.3792C74.0655 50.1892 75.0645 52.6684 75.0645 55.5768V55.6706C75.0645 61.1523 71.7808 64.4424 67.1051 65.776L76.1153 78.4075H69.2025L61.0082 66.7748H53.672V78.4075H47.8098V45.0422ZM62.2476 61.5811C66.4418 61.5811 69.1079 59.3896 69.1079 56.0055V55.9116C69.1079 52.3334 66.5357 50.3831 62.2006 50.3831H53.672V61.5811H62.2476" fill="white"/>
</g>
<path id="path18" d="M0 -1.44867e-05V27.4198H31.0638V-1.44867e-05H0Z" fill="white"/>
</g>
</svg>
