<svg width="48" height="48" viewBox="0 0 48 48" fill="none" xmlns="http://www.w3.org/2000/svg">
<g id="u:clock">
<path id="Vector" d="M22 4C18.0444 4 14.1776 5.17298 10.8886 7.37061C7.59962 9.56824 5.03617 12.6918 3.52242 16.3463C2.00867 20.0009 1.6126 24.0222 2.3843 27.9018C3.15601 31.7814 5.06082 35.3451 7.85787 38.1421C10.6549 40.9392 14.2186 42.844 18.0982 43.6157C21.9778 44.3874 25.9992 43.9913 29.6537 42.4776C33.3082 40.9638 36.4318 38.4004 38.6294 35.1114C40.827 31.8224 42 27.9556 42 24C42 21.3736 41.4827 18.7728 40.4776 16.3463C39.4725 13.9198 37.9993 11.715 36.1421 9.85786C34.285 8.00069 32.0802 6.5275 29.6537 5.52241C27.2272 4.51732 24.6264 4 22 4ZM22 40C18.8355 40 15.7421 39.0616 13.1109 37.3035C10.4797 35.5454 8.42894 33.0466 7.21794 30.1229C6.00693 27.1993 5.69008 23.9823 6.30744 20.8786C6.92481 17.7749 8.44866 14.9239 10.6863 12.6863C12.9239 10.4487 15.7749 8.9248 18.8786 8.30744C21.9823 7.69007 25.1993 8.00693 28.1229 9.21793C31.0466 10.4289 33.5454 12.4797 35.3035 15.1109C37.0616 17.7421 38 20.8355 38 24C38 28.2435 36.3143 32.3131 33.3137 35.3137C30.3131 38.3143 26.2435 40 22 40ZM28.2 25.26L24 22.84V14C24 13.4696 23.7893 12.9609 23.4142 12.5858C23.0392 12.2107 22.5304 12 22 12C21.4696 12 20.9609 12.2107 20.5858 12.5858C20.2107 12.9609 20 13.4696 20 14V24C20 24 20 24.16 20 24.24C20.0119 24.3778 20.0456 24.5128 20.1 24.64C20.1412 24.7587 20.1948 24.8726 20.26 24.98C20.3147 25.0937 20.3818 25.201 20.46 25.3L20.78 25.56L20.96 25.74L26.16 28.74C26.4648 28.9128 26.8097 29.0024 27.16 29C27.6028 29.0031 28.0342 28.8591 28.3864 28.5907C28.7386 28.3222 28.9917 27.9445 29.1061 27.5167C29.2205 27.0888 29.1897 26.6352 29.0184 26.2268C28.8472 25.8184 28.5453 25.4783 28.16 25.26H28.2Z" fill="#E82C4F"/>
</g>
</svg>
