<svg width="48" height="48" viewBox="0 0 48 48" fill="none" xmlns="http://www.w3.org/2000/svg">
<g id="u:users-alt">
<path id="Vector" d="M24.6 24.44C25.6672 23.5163 26.5231 22.3738 27.1097 21.09C27.6964 19.8063 28 18.4114 28 17C28 14.3478 26.9464 11.8043 25.0711 9.92893C23.1957 8.05357 20.6522 7 18 7C15.3478 7 12.8043 8.05357 10.9289 9.92893C9.05357 11.8043 8 14.3478 8 17C7.99998 18.4114 8.3036 19.8063 8.89025 21.09C9.4769 22.3738 10.3328 23.5163 11.4 24.44C8.60028 25.7078 6.22493 27.7551 4.55796 30.3371C2.89099 32.9191 2.00294 35.9266 2 39C2 39.5304 2.21071 40.0391 2.58579 40.4142C2.96086 40.7893 3.46957 41 4 41C4.53043 41 5.03914 40.7893 5.41421 40.4142C5.78929 40.0391 6 39.5304 6 39C6 35.8174 7.26428 32.7652 9.51472 30.5147C11.7652 28.2643 14.8174 27 18 27C21.1826 27 24.2348 28.2643 26.4853 30.5147C28.7357 32.7652 30 35.8174 30 39C30 39.5304 30.2107 40.0391 30.5858 40.4142C30.9609 40.7893 31.4696 41 32 41C32.5304 41 33.0391 40.7893 33.4142 40.4142C33.7893 40.0391 34 39.5304 34 39C33.9971 35.9266 33.109 32.9191 31.442 30.3371C29.7751 27.7551 27.3997 25.7078 24.6 24.44V24.44ZM18 23C16.8133 23 15.6533 22.6481 14.6666 21.9888C13.6799 21.3295 12.9108 20.3925 12.4567 19.2961C12.0026 18.1997 11.8838 16.9933 12.1153 15.8295C12.3468 14.6656 12.9182 13.5965 13.7574 12.7574C14.5965 11.9182 15.6656 11.3468 16.8295 11.1153C17.9933 10.8838 19.1997 11.0026 20.2961 11.4567C21.3925 11.9108 22.3295 12.6799 22.9888 13.6666C23.6481 14.6533 24 15.8133 24 17C24 18.5913 23.3679 20.1174 22.2426 21.2426C21.1174 22.3679 19.5913 23 18 23ZM37.48 23.64C38.7599 22.1987 39.596 20.4181 39.8876 18.5127C40.1792 16.6072 39.9139 14.6581 39.1235 12.9C38.3332 11.1419 37.0516 9.64959 35.4329 8.60285C33.8143 7.5561 31.9276 6.99948 30 7C29.4696 7 28.9609 7.21071 28.5858 7.58579C28.2107 7.96086 28 8.46957 28 9C28 9.53043 28.2107 10.0391 28.5858 10.4142C28.9609 10.7893 29.4696 11 30 11C31.5913 11 33.1174 11.6321 34.2426 12.7574C35.3679 13.8826 36 15.4087 36 17C35.9972 18.0505 35.7186 19.0818 35.1921 19.9908C34.6657 20.8999 33.9097 21.6548 33 22.18C32.7035 22.351 32.4558 22.5953 32.2807 22.8895C32.1056 23.1836 32.009 23.5178 32 23.86C31.9916 24.1995 32.0699 24.5356 32.2273 24.8365C32.3848 25.1374 32.6163 25.3933 32.9 25.58L33.68 26.1L33.94 26.24C36.3508 27.3834 38.3846 29.192 39.802 31.4526C41.2193 33.7133 41.9611 36.3319 41.94 39C41.94 39.5304 42.1507 40.0391 42.5258 40.4142C42.9009 40.7893 43.4096 41 43.94 41C44.4704 41 44.9791 40.7893 45.3542 40.4142C45.7293 40.0391 45.94 39.5304 45.94 39C45.9563 35.9309 45.1876 32.9085 43.7069 30.2201C42.2262 27.5317 40.0827 25.2666 37.48 23.64V23.64Z" fill="#E82C4F"/>
</g>
</svg>
