<svg width="58" height="66" viewBox="0 0 58 66" fill="none" xmlns="http://www.w3.org/2000/svg">
<path id="Vector" d="M29 4.125C31.7469 4.125 34.3813 5.21149 36.3236 7.14546C38.2659 9.07943 39.3571 11.7025 39.3571 14.4375V16.5H18.6429V14.4375C18.6429 11.7025 19.7341 9.07943 21.6764 7.14546C23.6187 5.21149 26.2531 4.125 29 4.125V4.125ZM43.5 16.5V14.4375C43.5 10.6084 41.9723 6.9362 39.253 4.22865C36.5338 1.52109 32.8456 0 29 0C25.1544 0 21.4662 1.52109 18.747 4.22865C16.0277 6.9362 14.5 10.6084 14.5 14.4375V16.5H0V57.75C0 59.938 0.872957 62.0365 2.42683 63.5836C3.9807 65.1308 6.08821 66 8.28571 66H49.7143C51.9118 66 54.0193 65.1308 55.5732 63.5836C57.127 62.0365 58 59.938 58 57.75V16.5H43.5ZM4.14286 20.625H53.8571V57.75C53.8571 58.844 53.4207 59.8932 52.6437 60.6668C51.8668 61.4404 50.813 61.875 49.7143 61.875H8.28571C7.18696 61.875 6.13321 61.4404 5.35627 60.6668C4.57934 59.8932 4.14286 58.844 4.14286 57.75V20.625Z" fill="white"/>
</svg>
