<svg width="255" height="89" viewBox="0 0 255 89" fill="none" xmlns="http://www.w3.org/2000/svg">
<path id="Vector" d="M255 0L68.4448 79.2006C52.9747 85.7265 39.9802 89 29.472 89C17.5719 89 8.93372 84.8472 3.57867 76.5309C0.210524 71.1915 -0.777609 64.422 0.603652 56.2116C1.98491 48.0013 5.66119 39.2613 11.6112 29.9598C16.5732 22.438 24.7013 12.5539 36.0171 0.29663C32.1789 6.32106 29.3644 12.9359 27.687 19.8743C24.712 32.5341 27.3895 41.825 35.7196 47.7576C39.6827 50.5227 45.1334 51.9105 52.0822 51.9105C57.6285 51.9105 63.876 51.0206 70.8248 49.2408L255 0Z" fill="white"/>
</svg>
